<mxfile host="app.diagrams.net" agent="Mozilla/5.0 (Windows NT 10.0; Win64; x64) AppleWebKit/537.36 (KHTML, like Gecko) Chrome/133.0.0.0 Safari/537.36" version="26.1.0">
  <diagram name="Page-1" id="RSWAmXedTwtuQrXeozfI">
    <mxGraphModel dx="880" dy="434" grid="1" gridSize="10" guides="1" tooltips="1" connect="1" arrows="1" fold="1" page="1" pageScale="1" pageWidth="827" pageHeight="1169" math="0" shadow="0">
      <root>
        <mxCell id="0" />
        <mxCell id="1" parent="0" />
        <mxCell id="kj8qoA-xbc1wfrMlvHZg-1" value="Actor" style="shape=umlActor;verticalLabelPosition=bottom;verticalAlign=top;html=1;outlineConnect=0;" vertex="1" parent="1">
          <mxGeometry x="60" y="100" width="30" height="60" as="geometry" />
        </mxCell>
        <mxCell id="kj8qoA-xbc1wfrMlvHZg-2" value="" style="ellipse;whiteSpace=wrap;html=1;" vertex="1" parent="1">
          <mxGeometry x="200" y="40" width="220" height="80" as="geometry" />
        </mxCell>
        <mxCell id="kj8qoA-xbc1wfrMlvHZg-3" value="" style="ellipse;whiteSpace=wrap;html=1;" vertex="1" parent="1">
          <mxGeometry x="194" y="140" width="220" height="80" as="geometry" />
        </mxCell>
        <mxCell id="kj8qoA-xbc1wfrMlvHZg-4" value="" style="ellipse;whiteSpace=wrap;html=1;" vertex="1" parent="1">
          <mxGeometry x="194" y="240" width="220" height="80" as="geometry" />
        </mxCell>
        <mxCell id="kj8qoA-xbc1wfrMlvHZg-7" value="" style="edgeStyle=orthogonalEdgeStyle;rounded=0;orthogonalLoop=1;jettySize=auto;html=1;" edge="1" parent="1" source="kj8qoA-xbc1wfrMlvHZg-5" target="kj8qoA-xbc1wfrMlvHZg-6">
          <mxGeometry relative="1" as="geometry" />
        </mxCell>
        <mxCell id="kj8qoA-xbc1wfrMlvHZg-5" value="" style="ellipse;whiteSpace=wrap;html=1;" vertex="1" parent="1">
          <mxGeometry x="201" y="345" width="220" height="80" as="geometry" />
        </mxCell>
        <mxCell id="kj8qoA-xbc1wfrMlvHZg-6" value="" style="ellipse;whiteSpace=wrap;html=1;" vertex="1" parent="1">
          <mxGeometry x="564" y="345" width="80" height="80" as="geometry" />
        </mxCell>
      </root>
    </mxGraphModel>
  </diagram>
</mxfile>
